<?xml version="1.0" encoding="utf-8"?>
<!-- Generator: Adobe Illustrator 19.0.1, SVG Export Plug-In . SVG Version: 6.00 Build 0)  -->
<svg version="1.1" xmlns="http://www.w3.org/2000/svg" xmlns:xlink="http://www.w3.org/1999/xlink" x="0px" y="0px"
	 viewBox="-140 44.7 74.1 81.3" style="enable-background:new -140 44.7 74.1 81.3;" xml:space="preserve">
<style type="text/css">
	.st0{display:none;}
	.st1{display:inline;}
	.st2{fill:none;stroke:#FFFFFF;stroke-width:7;stroke-miterlimit:10;}
	.st3{display:inline;fill:url(#SVGID_1_);}
	.st4{fill:#FFFFFF;}
</style>
<g id="Layer_2_1_" class="st0">
	<rect x="-140" y="44.7" class="st1" width="74.1" height="81.3"/>
</g>
<g id="waves" class="st0">
	<g id="Layer_3" class="st1">
		<path class="st2" d="M-92.8,104.4c5.9-4.6,9.8-11.9,9.8-20c0-7.8-3.5-14.8-9-19.4"/>
		<path class="st2" d="M-85.8,115.8c10-7.1,16.3-18.2,16.3-30.6c0-11.9-5.9-22.6-15.1-29.7"/>
	</g>
</g>
<g id="face_1_">
	<g id="Layer_5" class="st0">
		
			<linearGradient id="SVGID_1_" gradientUnits="userSpaceOnUse" x1="-148.2785" y1="134.0398" x2="-58.4452" y2="44.5398" gradientTransform="matrix(1 0 0 -1 0 173.4)">
			<stop  offset="0" style="stop-color:#FBA32F"/>
			<stop  offset="1" style="stop-color:#F88C29"/>
		</linearGradient>
		<path class="st3" d="M-61.5,133h-82.1c-3.9,0-7-3.2-7-7V43.9c0-3.9,3.2-7,7-7h82.2c3.8,0,7,3.2,7,7v82.2
			C-54.5,129.9-57.6,133-61.5,133z"/>
	</g>
	<g id="Layer_2">
		<polygon class="st4" points="-140,126 -140,44.7 -114,44.7 -98.4,74.7 -108.9,81.2 -107.6,88.5 -125.4,92.3 -112.1,100.9 
			-114,119.7 		"/>
	</g>
</g>
<g id="x_1_">
	<g>
		<line class="st2" x1="-92.7" y1="79.6" x2="-72.6" y2="99.8"/>
		<line class="st2" x1="-72.6" y1="79.6" x2="-92.7" y2="99.8"/>
	</g>
</g>
</svg>
